<svg width="32" height="32" viewBox="0 0 32 32" fill="none" xmlns="http://www.w3.org/2000/svg">
<path d="M2.36444 29.3908L4.26728 22.4433C3.09173 20.4052 2.47425 18.0933 2.47709 15.7404C2.48019 8.34781 8.49623 2.33359 15.889 2.33359C19.4765 2.33541 22.8438 3.73151 25.3763 6.26578C27.9087 8.80005 29.3021 12.1686 29.3008 15.7512C29.2975 23.1433 23.2806 29.1586 15.8889 29.1586H15.883C13.6386 29.1577 11.4332 28.5946 9.47417 27.5264L2.36444 29.3908Z" fill="white"/>
<path d="M15.8931 4.59845C9.74414 4.59845 4.74359 9.59717 4.74141 15.7414C4.73838 17.8394 5.3292 19.8955 6.44556 21.6719L6.71078 22.0935L5.58446 26.2054L9.80356 25.0992L10.211 25.3405C11.922 26.356 13.8839 26.893 15.8847 26.8941H15.8889C22.0331 26.8941 27.0336 21.8948 27.036 15.7503C27.0406 14.2858 26.7547 12.8349 26.1948 11.4816C25.6349 10.1283 24.8121 8.89953 23.774 7.8664C22.7418 6.82763 21.5137 6.00393 20.1609 5.44298C18.8081 4.88203 17.3575 4.59498 15.8931 4.59845Z" fill="url(#paint0_linear_6_103)"/>
<path fill-rule="evenodd" clip-rule="evenodd" d="M12.5369 10.1354C12.2857 9.57748 12.0214 9.56617 11.7828 9.55651L11.1404 9.54868C10.9169 9.54868 10.5538 9.63253 10.2469 9.96792C9.93991 10.3033 9.07388 11.1139 9.07388 12.7627C9.07388 14.4114 10.2748 16.0046 10.4421 16.2284C10.6094 16.4522 12.7604 19.9435 16.1667 21.2867C18.9973 22.403 19.5733 22.181 20.188 22.1252C20.8026 22.0695 22.1707 21.3146 22.4497 20.5321C22.7288 19.7495 22.729 19.0791 22.6453 18.9389C22.5617 18.7988 22.3382 18.7155 22.0028 18.5478C21.6674 18.3801 20.0201 17.5695 19.713 17.4575C19.4058 17.3456 19.1825 17.29 18.9589 17.6254C18.7352 17.9608 18.0938 18.7153 17.8982 18.9389C17.7026 19.1626 17.5073 19.1907 17.1719 19.0232C16.8365 18.8556 15.7574 18.5016 14.4771 17.36C13.4809 16.4718 12.8085 15.3748 12.6127 15.0396C12.4169 14.7043 12.5919 14.5228 12.76 14.3558C12.9104 14.2056 13.095 13.9645 13.2629 13.7689C13.4308 13.5733 13.486 13.4335 13.5976 13.2102C13.7091 12.9869 13.6535 12.7907 13.5697 12.6232C13.4858 12.4557 12.8347 10.7982 12.5369 10.1354Z" fill="white"/>
<defs>
<linearGradient id="paint0_linear_6_103" x1="15.6617" y1="5.9364" x2="15.7748" y2="24.9894" gradientUnits="userSpaceOnUse">
<stop stop-color="#57D163"/>
<stop offset="1" stop-color="#23B33A"/>
</linearGradient>
</defs>
</svg>
